<svg version="1.1" id="Layer_1" xmlns="http://www.w3.org/2000/svg" xmlns:xlink="http://www.w3.org/1999/xlink" x="0px" y="0px"
	 width="100%" viewBox="0 0 467 192" enable-background="new 0 0 467 192" xml:space="preserve">
<path fill="#FFFFFF" opacity="1.000000" stroke="none" 
	d="
M467.631317,56.943329 
	C468.000000,100.790787 467.916199,144.581985 468.131561,188.371719 
	C468.152710,192.678360 466.942810,193.099640 463.136719,193.095245 
	C360.070374,192.975876 257.003815,193.000000 153.468658,193.000000 
	C152.452209,188.970840 154.560593,185.567276 155.902252,182.095978 
	C161.970840,166.394699 168.419495,150.847183 176.874146,136.228348 
	C177.459137,135.216827 177.968582,134.167999 178.380890,133.073624 
	C179.265823,130.724747 179.726196,128.288239 176.876831,127.098907 
	C174.122696,125.949333 171.553452,126.662277 170.036987,129.433182 
	C166.292664,136.274902 162.084747,142.859192 158.906799,150.018829 
	C157.099701,154.090118 150.890121,154.910843 147.684509,151.743423 
	C146.017654,150.096420 146.721237,148.278412 147.448730,146.648727 
	C149.282272,142.541428 150.985794,138.375595 152.922104,134.314514 
	C154.074860,131.896805 154.989838,129.358795 151.695251,128.037338 
	C148.853851,126.897636 147.026810,128.348541 145.895676,131.110931 
	C143.374191,137.268890 139.092453,142.522812 136.823761,148.850235 
	C135.586716,152.300354 132.146744,152.760513 129.020966,153.436691 
	C126.520668,153.977554 124.089401,154.683319 123.511780,157.722122 
	C122.894371,160.970261 124.437523,162.292175 127.592262,161.226318 
	C132.091034,159.706375 132.901199,160.371399 132.590179,165.024460 
	C132.323318,169.016495 131.374176,172.933777 131.321747,176.937012 
	C131.298248,178.730759 131.036057,181.114014 133.208832,181.625671 
	C135.848846,182.247345 136.347763,179.586716 136.986038,177.847198 
	C138.822601,172.841873 139.911011,167.596298 141.673264,162.557541 
	C142.632111,159.815918 144.148163,158.038803 147.325729,157.765900 
	C153.960297,157.196075 155.167801,158.564545 152.869278,164.881042 
	C150.589676,171.145477 148.503235,177.480911 146.145447,183.709824 
	C144.997238,186.743210 144.821411,189.448944 146.118011,192.650421 
	C98.929947,193.000000 51.859825,192.969803 4.789989,193.070831 
	C1.787845,193.077271 0.880772,192.544449 0.907713,189.304443 
	C1.086104,167.849960 1.000000,146.393280 1.000000,124.468658 
	C3.615176,124.149094 3.306637,126.500008 3.832715,128.027237 
	C6.934834,137.032745 13.164572,141.849228 22.635311,142.697067 
	C31.934452,143.529556 31.939980,143.600021 34.926456,134.585785 
	C46.663876,99.158241 61.121922,64.812576 76.197716,30.711393 
	C78.014221,26.602507 79.752495,22.459961 81.779305,18.446531 
	C84.476639,13.105324 86.054352,7.626539 83.851959,1.350510 
	C182.354233,1.000000 280.708466,1.000000 379.531342,1.000000 
	C380.348938,3.347862 378.534119,3.695099 376.972870,4.170825 
	C375.228729,4.702260 373.390839,4.911939 371.198120,5.772473 
	C372.591949,7.607022 373.881073,9.375043 372.126587,11.659859 
	C370.475891,13.809543 369.113831,16.050016 366.011353,16.219669 
	C350.236572,17.082287 334.465485,18.439898 318.738373,15.484880 
	C314.631409,14.713206 310.607330,13.762244 306.668121,12.369680 
	C303.640656,11.299434 302.500549,12.731302 303.160675,15.597443 
	C304.385223,20.914145 308.346924,23.633865 313.172821,25.067429 
	C321.521179,27.547373 330.174530,28.322102 338.822815,28.614225 
	C344.961945,28.821592 351.127747,28.977583 357.282898,28.218557 
	C361.039612,27.755299 361.838257,29.001965 360.575714,32.540157 
	C360.071869,33.952148 359.338379,35.269974 358.651672,36.601639 
	C350.940857,51.554497 343.827911,66.789948 337.105530,82.209259 
	C336.293732,84.071335 335.359467,85.809578 333.610504,86.961220 
	C323.460358,93.644806 314.086090,101.462891 303.506439,107.520317 
	C299.302002,109.927582 295.022308,112.180321 290.298645,113.363686 
	C286.193329,114.392159 284.663635,113.019920 285.076752,108.791580 
	C285.270691,106.806541 285.665161,104.828217 286.242371,102.916306 
	C289.738800,91.334953 289.620392,92.893867 298.837006,92.588135 
	C312.200226,92.144836 326.424103,79.959183 330.638916,65.856506 
	C331.163422,64.101486 331.592590,62.318169 331.985168,60.528786 
	C334.517487,48.986397 328.026703,42.211674 316.111908,43.604378 
	C303.784943,45.045254 294.396484,51.624996 286.302643,60.346451 
	C281.431519,65.595284 277.296753,71.478073 273.984436,77.881416 
	C273.217102,79.364799 272.451385,80.910942 271.188690,81.996544 
	C263.129578,88.925385 255.385193,96.231964 246.375336,102.526909 
	C245.742081,102.505493 245.493912,102.443542 244.962555,102.126419 
	C243.852097,99.508377 245.328445,97.703064 246.227280,95.800949 
	C249.846497,88.141953 254.089447,80.781464 257.119263,72.838943 
	C258.664520,68.788063 259.931793,64.670082 260.337067,60.276310 
	C259.719666,62.998161 260.282166,66.231651 257.527985,68.127495 
	C255.498199,66.862984 255.914169,64.885521 255.736267,63.129871 
	C255.146515,57.309658 248.708847,51.550312 242.806427,51.467968 
	C240.156860,51.431000 239.053955,53.050751 238.082626,55.144012 
	C235.565125,60.569324 232.863098,65.953629 230.787537,71.525520 
	C227.725464,79.745689 222.678177,86.284454 216.278839,92.024567 
	C211.840714,96.005508 208.154877,100.771683 203.049225,104.475937 
	C202.439804,104.411194 202.204956,104.325562 201.755463,103.932541 
	C201.021164,101.457069 202.240128,99.748444 203.123596,97.997055 
	C206.497223,91.309204 209.722351,84.548431 213.485031,78.055237 
	C216.510941,72.833481 218.036331,67.319542 215.345612,61.379539 
	C213.372604,57.023933 210.467041,55.368538 205.766418,56.189636 
	C202.979202,56.676506 200.292953,57.663628 197.498062,58.111160 
	C193.548965,58.743500 192.587784,57.658443 193.666595,53.747921 
	C194.513733,50.677185 196.069794,47.904934 197.713928,45.193485 
	C200.049591,41.341602 202.260040,37.403206 203.699768,33.135101 
	C205.779343,26.970200 200.175919,18.574921 193.723526,18.632658 
	C189.884323,18.667015 185.762299,20.780107 183.857407,23.651306 
	C178.746780,31.354471 173.513351,39.308266 173.298492,49.099850 
	C173.096786,58.293163 177.605865,63.386093 186.656265,64.617584 
	C195.563538,65.829590 195.929810,66.502914 191.216202,74.251045 
	C186.270935,82.379997 182.189789,90.955025 178.235291,99.571777 
	C172.690216,111.654297 177.965256,121.426003 191.043015,124.211502 
	C194.913544,125.035904 197.867661,124.144600 200.221893,120.920883 
	C203.757523,116.079453 207.607590,111.479874 211.357941,106.804398 
	C212.200485,105.754021 213.137726,104.815369 214.885147,104.459976 
	C215.499588,104.532730 215.737106,104.615219 216.224915,104.979919 
	C215.744598,111.816376 218.721512,116.015244 224.733459,118.311325 
	C231.369095,120.845596 237.343903,120.315277 242.641174,115.043854 
	C248.533524,109.180252 254.181946,103.042679 260.803345,97.950951 
	C262.059570,96.984947 263.234009,95.123657 265.033020,96.257614 
	C266.439697,97.144287 265.920654,98.953964 265.710419,100.438545 
	C265.617004,101.098221 265.698975,100.267799 265.620483,100.929832 
	C263.743195,116.764603 272.891815,124.671921 288.527069,120.807953 
	C300.185120,117.926880 309.475342,110.885925 318.737518,103.789375 
	C320.584717,102.374062 322.365662,100.865173 324.217010,99.451828 
	C325.500336,98.472115 326.749603,96.860123 328.572388,97.797737 
	C330.465729,98.771645 329.680969,100.686974 329.542389,102.290855 
	C328.734192,111.643303 332.555695,118.020683 341.136200,121.619835 
	C346.787872,123.990463 350.366364,122.998878 354.124084,118.143417 
	C357.892517,113.274170 362.077087,108.750542 366.016998,104.022614 
	C366.959900,102.891090 368.098541,101.446838 369.731995,102.071419 
	C371.363342,102.695206 371.081451,104.551201 371.231964,106.006416 
	C372.264038,115.986595 383.965576,125.181358 393.696381,123.161842 
	C398.525330,122.159653 401.880066,118.233063 405.549072,115.129578 
	C409.465576,111.816689 412.962769,107.988770 417.892151,105.459000 
	C418.506104,105.544647 418.741913,105.633240 419.205536,106.023079 
	C419.957550,108.136658 418.989746,109.548248 418.157867,110.982880 
	C412.304138,121.078239 405.868713,130.776871 398.803314,140.077011 
	C394.016693,146.377609 388.094269,149.914108 379.999603,149.276413 
	C378.678497,149.172348 377.323120,149.159271 376.016541,149.453613 
	C373.717285,149.971527 373.480896,151.309891 374.692657,153.117432 
	C375.063995,153.671387 375.527374,154.167969 376.062866,154.563324 
	C387.485901,162.996719 406.232422,165.826294 417.417084,150.868683 
	C437.658112,123.799667 452.665161,94.080559 464.344666,62.527431 
	C465.080353,60.539925 465.279419,58.241776 467.631317,56.943329 
z"/>
<path fill="#E60094" opacity="1.000000" stroke="none" 
	d="
M245.354187,102.691772 
	C252.637390,96.253433 259.591309,89.733788 267.335785,84.125511 
	C271.916565,80.808281 273.597778,75.404495 276.540894,70.914337 
	C284.604309,58.612450 294.369171,48.218075 308.861786,43.749477 
	C313.384918,42.354832 318.079559,41.409599 323.232178,42.797817 
	C332.807129,45.377476 335.334076,49.836441 333.797394,58.550808 
	C330.766266,75.740097 321.433868,88.042358 303.921631,93.181458 
	C300.752960,94.111313 297.682587,94.166260 294.654236,93.879654 
	C291.078735,93.541267 289.729065,95.044373 289.002289,98.149422 
	C288.153046,101.777664 286.835358,105.305611 286.137421,108.956688 
	C285.655273,111.479149 285.177032,113.726852 289.803925,112.252045 
	C302.063904,108.344215 311.839935,100.516136 322.109436,93.391441 
	C325.591217,90.975906 328.939423,88.335968 332.577698,86.186180 
	C336.917023,83.622154 337.109985,78.785957 338.811707,74.994461 
	C345.422028,60.266609 352.485291,45.776825 359.888641,31.441631 
	C360.185516,30.866749 360.289612,30.192303 360.615479,29.136955 
	C352.729797,30.536373 344.923431,30.270332 337.181732,29.885021 
	C328.568512,29.456331 319.881714,28.816381 311.606689,25.983564 
	C306.239716,24.146278 302.617828,20.691315 301.296295,14.871880 
	C300.849609,12.905033 301.484192,11.523447 302.484619,10.437234 
	C303.371185,9.474689 304.855652,10.087614 306.178589,10.563186 
	C322.109680,16.290203 338.499603,17.149349 355.166382,15.068563 
	C357.136841,14.822561 359.213654,14.715967 361.151520,15.055843 
	C366.846680,16.054703 370.471222,13.772300 372.420013,8.442238 
	C371.482239,6.820887 367.882111,9.648904 368.176239,6.331160 
	C368.350555,4.364701 370.803040,4.541508 372.390350,3.867432 
	C374.796692,2.845519 377.749969,3.898468 379.874023,1.365938 
	C381.714355,1.000000 383.428711,1.000000 385.571533,1.000000 
	C391.375519,2.003345 395.790314,3.933466 396.501190,10.350095 
	C396.805756,13.099261 399.389313,12.642779 401.309692,12.649407 
	C407.129303,12.669493 412.940155,12.525884 418.645294,14.087615 
	C423.910217,15.528835 427.409210,18.654079 428.778534,24.006008 
	C429.243347,25.822746 429.250916,27.629818 428.456116,29.374601 
	C427.725250,30.979073 426.574249,32.142815 424.785187,32.429962 
	C422.763428,32.754452 421.613831,31.501396 421.060730,29.830164 
	C420.183411,27.179207 418.386871,26.293375 415.747711,26.316637 
	C408.605865,26.379587 401.461914,26.076233 394.357513,27.270622 
	C391.914368,27.681362 390.212952,28.335487 390.352905,31.212259 
	C390.496521,34.165356 389.144531,36.698849 387.850586,39.211224 
	C382.675079,49.260109 377.916534,59.516651 372.351227,69.374092 
	C366.626617,79.513718 362.419556,90.416603 357.083405,100.760025 
	C356.246552,102.382187 355.570709,104.096527 354.143524,105.792343 
	C353.693787,106.276581 353.468750,106.477242 353.290222,106.713280 
	C353.069244,107.005402 352.477448,107.340889 352.731140,107.597565 
	C353.103394,107.974213 353.243073,107.832443 352.822693,107.483101 
	C352.660645,107.348419 352.811615,107.091728 353.382996,106.633614 
	C359.890961,98.788177 366.546661,91.587540 374.277496,85.436829 
	C381.365509,79.797493 384.203674,71.435043 387.997162,63.707924 
	C389.041565,61.580559 388.555969,59.480801 386.864563,57.726505 
	C384.773071,55.557224 384.370880,53.068668 385.688965,50.381344 
	C387.051453,47.603508 389.691772,47.726704 392.199005,47.775818 
	C408.390350,48.093002 417.731201,62.844139 411.062958,77.605812 
	C407.424805,85.659645 402.958466,93.287636 398.779480,101.062347 
	C397.280334,103.851402 395.950439,106.714363 395.049438,109.941353 
	C401.504883,105.005692 407.991028,100.102135 413.498291,94.085739 
	C416.529724,90.774078 419.305908,87.216537 422.414825,83.972710 
	C430.044067,76.012558 434.064362,66.256706 436.733887,55.793633 
	C437.641113,52.237816 438.780762,48.752605 440.204895,45.371624 
	C440.641510,44.335075 441.198975,42.905701 442.515442,43.122055 
	C444.265320,43.409637 443.906769,45.133732 443.951782,46.401627 
	C444.028595,48.566952 443.299530,50.595978 443.223450,51.877445 
	C444.150330,48.419994 444.343842,44.299091 442.862732,39.923714 
	C440.619171,33.296078 442.851807,30.635584 449.966583,30.758528 
	C458.255554,30.901758 465.425537,36.463432 467.776794,44.700291 
	C468.000000,48.692909 468.000000,52.385818 468.000000,56.539364 
	C462.361664,70.194092 457.269531,83.600105 451.318695,96.687042 
	C443.940704,112.912537 434.729370,127.939491 424.828827,142.631577 
	C422.285583,146.405670 419.649231,150.139130 416.780212,153.667282 
	C408.786102,163.497955 395.934814,165.298874 383.772797,160.245636 
	C380.348145,158.822708 376.770447,157.520401 374.091095,154.644943 
	C372.794708,153.253632 371.486542,151.995071 372.093262,149.928116 
	C372.801147,147.516251 374.870209,148.046646 376.632629,148.006226 
	C377.963440,147.975693 379.306549,147.888397 380.625153,148.018723 
	C387.503845,148.698624 392.821594,145.887650 396.875488,140.577835 
	C405.062103,129.854858 412.624847,118.711288 419.040649,106.433075 
	C419.319244,105.848747 419.373779,105.665794 419.247925,105.521576 
	C419.139709,105.397598 419.031891,105.335144 418.645569,105.308731 
	C412.556763,110.378326 406.730621,115.457260 400.940155,120.576553 
	C397.240814,123.847061 393.409943,125.712799 388.154968,124.083855 
	C380.646057,121.756241 373.701050,119.026253 370.486359,111.013649 
	C369.388458,108.277122 370.501221,105.417686 369.725006,102.355865 
	C366.133392,104.119034 364.890411,108.017471 362.184540,110.512215 
	C359.342560,113.132439 357.107086,116.456902 354.833893,119.636162 
	C351.869019,123.782776 346.873444,125.490898 342.000824,123.468246 
	C332.089233,119.353905 325.202667,111.506699 328.931976,99.593597 
	C329.052551,99.208519 328.744629,98.689301 328.552246,97.877029 
	C321.910736,102.846619 315.540527,107.811363 308.962982,112.484314 
	C300.924927,118.194862 292.229492,122.575218 282.140991,122.959229 
	C267.863586,123.502663 261.458038,113.367752 264.610535,99.954575 
	C264.885681,98.783958 264.952515,97.712334 264.859619,96.299683 
	C257.007843,102.076981 250.517761,109.082726 243.722198,115.758331 
	C237.082581,122.280746 227.077194,122.955048 219.829056,117.252510 
	C216.174728,114.377441 213.476440,110.928085 216.042572,105.462379 
	C216.316589,104.845909 216.372025,104.664719 216.246140,104.522499 
	C216.138275,104.400658 216.030106,104.339279 215.643631,104.311783 
	C210.085602,109.877495 205.467026,116.006859 200.976532,122.230042 
	C199.087173,124.848419 196.699219,126.452026 193.478638,125.957779 
	C186.149582,124.833031 179.280609,122.380913 175.922470,115.185097 
	C173.718399,110.462227 174.162277,104.992882 176.382263,100.380577 
	C181.237411,90.293465 185.814865,80.032379 191.923721,70.589645 
	C194.358063,66.826759 194.040512,66.035316 189.270981,66.077507 
	C185.700150,66.109085 182.383530,65.406639 179.394394,63.702286 
	C172.444458,59.739532 169.352768,50.854050 172.485565,43.117859 
	C175.044159,36.799606 177.844269,30.516571 181.230606,24.615786 
	C183.972794,19.837444 189.218307,16.738773 194.326630,17.348774 
	C199.790665,18.001251 204.038849,22.093403 205.669830,28.109358 
	C206.558319,31.386566 204.840515,33.818722 203.789322,36.456898 
	C201.260315,42.803932 196.735657,48.137234 194.564804,54.728649 
	C193.657120,57.484650 194.136719,57.743694 196.581024,57.024292 
	C198.904343,56.340504 201.248245,55.721806 203.597519,55.131958 
	C213.299332,52.696053 216.745377,57.935940 217.958771,65.895248 
	C218.741470,71.029434 216.564026,75.511948 214.025070,79.766930 
	C209.516190,87.323250 205.913834,95.337715 201.959793,103.562881 
	C201.680618,104.151291 201.626114,104.334328 201.751938,104.478653 
	C201.860138,104.602783 201.967957,104.665291 202.354248,104.691742 
	C206.358017,99.397408 210.985779,94.792908 215.935135,90.780891 
	C224.805649,83.590355 228.471146,73.440819 232.968811,63.684387 
	C234.664337,60.006432 236.402130,56.325020 237.737228,52.510963 
	C238.842072,49.354599 241.248917,49.791077 243.422974,50.069683 
	C251.995834,51.168331 256.827393,56.792152 257.006958,65.562973 
	C257.019836,66.192474 257.107697,66.820450 257.169586,67.554352 
	C259.622192,64.983032 258.183502,61.119770 260.495331,58.389332 
	C261.409576,64.764511 259.960968,71.064354 255.645416,79.783295 
	C252.109558,86.926949 248.551437,94.059578 244.959778,101.562920 
	C244.680603,102.151276 244.626068,102.334320 244.751892,102.478683 
	C244.860092,102.602859 244.967911,102.665390 245.354187,102.691772 
z"/>
<path fill="#FFFFFF" opacity="1.000000" stroke="none" 
	d="
M468.000000,44.531342 
	C464.347778,39.964931 461.348236,34.324520 454.437439,32.707779 
	C452.998688,32.371189 451.602203,32.041935 450.155579,32.016735 
	C442.674438,31.886415 441.605316,33.047367 444.115234,39.832340 
	C446.195709,45.456356 444.085327,50.346535 442.289001,55.430477 
	C442.689667,51.492229 443.478546,47.571503 442.722260,42.667057 
	C436.378204,56.397255 435.375671,71.397270 425.065918,82.843407 
	C415.256927,93.733612 405.496185,104.401512 393.065918,113.156441 
	C392.799927,108.414536 395.271057,105.125465 396.919128,101.752434 
	C400.990662,93.419365 405.804474,85.449768 409.900513,77.127640 
	C413.009521,70.810822 413.657837,64.029366 409.336395,57.994106 
	C404.485291,51.219124 397.489014,48.512573 389.144806,48.927715 
	C387.035278,49.032669 386.560913,50.446724 386.233215,51.662636 
	C385.784210,53.328888 385.246094,55.584156 387.292145,56.601376 
	C391.587982,58.737125 390.433838,61.934418 388.965332,64.914047 
	C386.158539,70.609108 382.885193,76.075104 380.106873,81.782875 
	C378.906097,84.249733 376.516663,85.157631 374.691559,86.580551 
	C366.934601,92.628120 360.969940,100.372337 353.884338,107.500305 
	C353.370026,107.712883 353.110260,107.709442 352.883881,107.317780 
	C359.537781,92.978256 365.724060,78.826416 373.147125,65.251480 
	C378.694855,55.106056 383.736115,44.680557 388.777588,34.270653 
	C389.026611,33.756481 390.352142,32.387180 388.693604,30.607332 
	C387.266937,29.076305 389.098724,26.429564 391.825958,26.023251 
	C400.703094,24.700710 409.648041,25.025080 418.578735,24.988707 
	C420.786407,24.979713 422.074463,25.763422 422.002197,28.158274 
	C421.951080,29.850811 421.961426,31.966671 424.200470,31.786121 
	C426.171600,31.627178 427.535919,29.961454 427.971283,27.846235 
	C428.824005,23.702959 425.034393,17.677032 420.510254,16.001631 
	C413.692352,13.476797 406.576569,13.891220 399.524689,14.062519 
	C396.384399,14.138799 394.665619,13.835023 394.897522,9.920836 
	C395.238220,4.169435 390.408691,3.126201 386.132233,1.342709 
	C412.241577,1.000000 438.483337,1.048806 464.724365,0.926138 
	C467.412476,0.913572 468.129669,1.354381 468.087372,4.203362 
	C467.890228,17.487309 468.000000,30.775810 468.000000,44.531342 
z"/>
<path fill="#FFFFFF" opacity="1.000000" stroke="none" 
	d="
M1.396250,110.022537 
	C1.000000,74.914917 1.046563,39.829670 0.919582,4.745050 
	C0.908326,1.635125 1.609978,0.898387 4.738333,0.916899 
	C29.845736,1.065473 54.954403,1.000000 80.531342,1.000000 
	C82.709938,2.448568 83.301895,4.263115 82.528870,6.370061 
	C81.264313,9.816689 79.582626,13.073406 77.684418,16.210701 
	C77.183723,17.038225 76.501106,18.110950 75.427429,17.820665 
	C73.942726,17.419254 74.531883,16.007816 74.530693,15.298727 
	C67.978264,29.985060 61.242664,44.941292 54.957664,60.091549 
	C45.898548,81.928955 36.709152,103.715439 29.164259,126.147125 
	C28.415648,128.372818 28.200130,132.110962 25.288588,131.764282 
	C21.934170,131.364868 22.790588,127.626480 22.674002,125.096252 
	C22.319279,117.397850 23.402031,109.815704 24.849632,102.285995 
	C27.301388,89.533173 30.168961,76.859589 32.095039,64.006889 
	C33.018200,57.846653 33.033871,51.706902 31.338507,45.680759 
	C29.571602,39.400337 25.518518,35.310780 19.084442,33.812050 
	C16.427992,33.193260 15.096055,33.503281 14.783923,37.101955 
	C13.894061,47.361465 12.366476,57.573025 10.466004,67.709816 
	C10.237684,68.927643 10.066222,70.892113 8.521536,70.740082 
	C6.538469,70.544899 6.962778,68.460381 7.051075,67.081139 
	C7.462107,60.660656 8.794143,54.363281 9.796467,48.022503 
	C6.618011,66.896729 4.589587,85.902084 3.335921,104.995354 
	C3.217873,106.793221 3.465561,108.716560 1.396250,110.022537 
z"/>
<path fill="#E60094" opacity="1.000000" stroke="none" 
	d="
M1.000000,110.464645 
	C2.987613,108.664902 1.868594,106.662086 1.953071,104.999283 
	C2.950861,85.359436 5.635321,65.933266 9.204427,46.617123 
	C9.341076,45.877571 9.989349,45.232555 11.081821,43.395885 
	C10.292844,53.204910 7.850241,61.637192 8.279292,70.323372 
	C10.947271,61.355003 11.130017,51.973473 12.897673,42.855446 
	C13.406559,40.230469 15.350496,37.391624 12.566010,34.494736 
	C11.868183,33.768742 13.449276,31.933289 15.585542,31.941063 
	C24.111307,31.972086 30.960503,37.491730 32.996315,46.121857 
	C35.806362,58.034058 32.517906,69.506409 30.464823,81.067924 
	C27.755203,96.326591 23.226391,111.332413 24.020649,127.076965 
	C24.099630,128.642609 23.280636,130.514130 25.748880,131.778015 
	C32.818649,110.982124 40.804657,90.510300 49.303185,70.233673 
	C57.761017,50.054119 66.021927,29.793276 76.165077,9.698827 
	C78.153275,13.091715 74.087296,14.769764 75.210754,17.294683 
	C80.346268,10.448219 82.250511,5.348599 81.005066,1.381895 
	C81.750000,1.000000 82.500000,1.000000 83.625000,1.000000 
	C88.868080,7.739841 85.323944,13.924583 82.512360,19.976801 
	C69.656540,47.650154 58.086224,75.859520 47.021202,104.283966 
	C42.199951,116.669067 37.975876,129.260712 33.919147,141.912903 
	C33.463253,143.334763 33.181416,145.368744 30.831690,144.984756 
	C22.432074,143.612106 13.339180,144.497498 7.054500,136.670532 
	C4.061701,132.943268 2.540796,128.833832 1.355640,124.150345 
	C1.000000,119.643097 1.000000,115.286201 1.000000,110.464645 
z"/>
<path fill="#00FE00" opacity="1.000000" stroke="none" 
	d="
M146.437500,193.000000 
	C143.293304,190.363724 143.230270,188.037811 144.684692,184.143784 
	C147.770874,175.880905 150.717117,167.522934 153.620651,159.137573 
	C143.258743,158.711441 143.313736,158.724442 140.978134,168.607529 
	C139.981369,172.825409 139.066544,177.094147 137.004425,180.981445 
	C136.207123,182.484421 135.884369,184.627594 133.377747,183.964783 
	C131.012253,183.339294 130.023651,181.776917 129.953201,179.263336 
	C129.809433,174.132629 130.990417,169.154602 131.496048,164.104355 
	C131.604797,163.018173 132.490997,161.887253 131.298203,161.158752 
	C130.483093,160.660919 129.436325,161.036697 128.619827,161.864166 
	C126.929199,163.577545 125.119736,165.881500 122.941879,162.458923 
	C120.777092,159.056870 121.782440,154.451996 124.853874,153.050125 
	C124.995110,152.985672 125.183205,153.013367 125.349274,153.015396 
	C134.098175,153.122147 137.153748,147.058594 139.451035,140.092880 
	C140.761093,136.120560 144.692612,133.685440 145.090134,128.809875 
	C145.300171,126.233978 149.769897,124.950325 152.638535,126.401779 
	C155.256271,127.726295 157.110641,129.955597 154.891495,133.649353 
	C152.328247,137.915894 150.501312,142.627396 148.391342,147.162750 
	C147.094055,149.951218 147.477280,151.343826 151.028854,152.158356 
	C155.162933,153.106461 156.796814,152.314392 158.592300,148.236023 
	C161.120850,142.492477 164.279617,136.920319 167.552536,131.472061 
	C169.422379,128.359451 170.640915,125.904404 174.019547,125.079269 
	C178.369125,124.017006 181.234665,127.560455 180.087128,131.922455 
	C178.778351,136.897293 175.361694,140.706665 173.260117,145.241806 
	C166.624786,159.560638 159.777374,173.779816 154.955124,188.859283 
	C154.569550,190.064987 153.794067,191.145996 153.099884,192.642487 
	C150.958328,193.000000 148.916672,193.000000 146.437500,193.000000 
z"/>
<path fill="#E60094" opacity="1.000000" stroke="none" 
	d="
M125.720566,59.706951 
	C108.555450,72.451065 95.767021,87.726440 91.385536,109.742935 
	C96.973244,108.349586 99.748779,104.247505 103.587433,101.816010 
	C106.609001,99.902092 109.075317,97.020737 112.218369,95.406586 
	C121.432922,90.674377 125.271561,81.522873 130.596893,73.660385 
	C134.289108,68.209076 139.542267,68.617317 144.625229,69.162201 
	C149.358002,69.669540 152.253891,73.202744 153.850052,77.643051 
	C154.549713,79.589424 153.487793,81.199608 152.638290,82.749428 
	C149.687546,88.132759 146.630646,93.457916 144.025314,99.199486 
	C148.974655,97.997406 151.463715,93.523712 155.362320,90.992104 
	C163.501831,85.706642 170.194092,78.286247 179.549240,74.737480 
	C181.405029,74.033516 183.121353,73.314407 184.442810,75.095543 
	C186.215393,77.484741 183.896622,78.822586 182.493454,79.925087 
	C176.459747,84.665909 169.976425,88.806229 164.217682,93.931625 
	C155.299469,101.868996 145.779968,109.168114 140.251358,120.254761 
	C137.523041,125.725929 132.121948,123.252892 128.345184,122.508217 
	C118.998131,120.665260 117.243538,117.305283 116.898132,104.334442 
	C110.398064,108.386612 105.200050,113.753891 98.941399,117.724678 
	C88.292183,124.481094 83.339165,124.579750 73.094048,117.635201 
	C67.352425,113.743309 68.631882,107.638504 68.172813,102.445061 
	C66.841621,87.384888 73.655205,74.780014 82.389389,63.363380 
	C92.929230,49.586536 106.578903,39.920700 124.052895,36.289394 
	C119.513573,38.665493 114.974258,41.041592 110.434937,43.417690 
	C115.071091,42.544193 119.556351,41.136295 124.185310,40.370522 
	C130.968170,39.248428 137.136536,41.317787 142.868240,44.568722 
	C144.892639,45.716923 145.395935,48.388546 144.927795,50.799828 
	C144.462677,53.195568 142.220627,53.488258 140.399368,53.948597 
	C135.372894,55.219093 130.170670,55.961781 125.720566,59.706951 
z"/>
<path fill="#00FE00" opacity="1.000000" stroke="none" 
	d="
M233.323929,164.742447 
	C237.904434,161.928253 241.043732,158.603241 240.146042,152.751312 
	C239.936829,151.387527 238.288391,148.390839 241.740097,148.059128 
	C244.733536,147.771469 247.660461,148.000488 249.138123,151.445053 
	C250.719925,155.132462 250.399689,158.998856 249.566086,162.587234 
	C248.946991,165.252274 249.595627,168.105453 247.892914,170.581299 
	C253.292511,167.139740 255.717499,162.001160 257.280121,156.290970 
	C258.977081,150.089920 259.921631,143.924850 258.066193,137.521393 
	C257.120911,134.259048 254.692123,132.376022 252.611847,130.092377 
	C251.899750,129.310654 250.463242,128.701065 251.299377,127.261528 
	C251.939819,126.158951 253.080643,126.050606 254.316376,125.966881 
	C263.865540,125.319870 271.017975,134.529694 268.959869,144.961136 
	C266.341278,158.233368 259.120728,168.339706 248.102448,176.088531 
	C244.683136,178.493240 241.878647,178.027161 238.792831,176.239960 
	C235.643997,174.416275 235.561707,171.688812 237.284393,168.562195 
	C236.795334,168.228897 236.306274,167.895584 235.817200,167.562286 
	C234.021271,169.731018 231.521042,171.637405 230.592789,174.129349 
	C229.164658,177.963257 226.682953,178.511032 223.402115,177.956177 
	C219.869141,177.358688 218.224609,174.929413 217.791519,171.167511 
	C215.050400,173.061127 212.600250,175.092239 209.856049,176.581451 
	C203.477829,180.042648 198.125656,176.703629 197.996368,169.377060 
	C197.985275,168.748199 197.930740,168.120117 197.870514,167.018417 
	C193.058105,171.155701 188.365021,174.908218 182.693207,176.949112 
	C173.718292,180.178528 169.401871,176.899399 170.000778,167.560028 
	C170.490417,159.924728 180.458084,146.234879 187.335449,144.044937 
	C191.577850,142.694046 196.043869,141.357483 199.359711,145.932434 
	C201.108154,148.344803 199.560837,155.500198 196.798187,158.700272 
	C193.277756,162.778137 189.065903,165.563889 183.518051,166.027878 
	C181.434937,166.202087 179.149521,170.462189 180.082199,172.187683 
	C180.867767,173.640991 181.569946,172.477859 182.428345,172.178131 
	C188.372299,170.102600 192.659088,165.406677 198.020325,162.420502 
	C198.796982,161.987900 198.761230,161.050293 199.059921,160.295609 
	C202.804306,150.835068 209.767944,144.557541 218.947342,140.555283 
	C220.776932,139.757584 229.814697,143.283356 230.615906,145.193451 
	C232.060776,148.637939 228.976425,148.501526 227.217896,148.946091 
	C219.058807,151.008759 209.375443,162.479401 209.182144,170.861694 
	C214.460312,167.002502 220.282700,164.108719 223.385117,158.109009 
	C225.325363,154.356827 228.066971,152.784622 232.089096,155.024353 
	C236.155457,157.288727 234.538589,160.261734 232.958710,163.559753 
	C232.705322,164.145813 232.655182,164.335709 232.765915,164.498459 
	C232.867081,164.647110 232.962433,164.721725 233.323929,164.742447 
z"/>
<path fill="#00FE00" opacity="1.000000" stroke="none" 
	d="
M321.675964,152.257629 
	C315.954956,159.302460 310.633118,166.472458 304.990662,173.380615 
	C302.816040,176.043045 300.671112,179.412048 295.996490,177.600037 
	C291.887207,176.007156 290.317444,173.477356 292.381165,168.415649 
	C286.521454,171.768005 282.455750,176.186600 276.781464,177.650314 
	C273.522095,178.491089 270.174194,178.532272 267.535156,175.963287 
	C264.965576,173.461914 264.890076,170.744232 265.777893,167.079941 
	C268.206329,157.057037 273.162048,149.240906 282.310028,144.285110 
	C283.295685,143.751144 284.363342,143.240021 285.451569,143.044296 
	C293.165039,141.657028 296.938385,145.920151 294.752533,153.619400 
	C292.848267,160.326645 287.860138,163.858139 281.534271,165.754440 
	C276.683990,167.208389 276.653320,167.106064 274.994141,173.776810 
	C285.207703,167.858047 296.198120,164.545441 299.256165,151.690857 
	C299.823639,149.305649 300.852081,146.648773 303.022095,144.310364 
	C304.582397,142.629013 303.596130,138.694778 307.979492,140.467987 
	C312.887665,142.453506 313.313660,146.599533 312.954285,151.503418 
	C312.761108,152.170975 312.449829,152.541809 312.531128,152.658142 
	C312.715851,152.922577 313.032990,152.808197 313.421265,152.619370 
	C318.389801,147.909653 323.312866,143.216309 327.856232,138.180420 
	C329.803955,136.021545 331.787933,136.947556 333.615753,137.350220 
	C336.163208,137.911438 337.620209,139.960587 337.979706,142.594864 
	C338.418152,145.807297 337.136017,148.671906 335.818909,151.432510 
	C333.452942,156.391464 330.820190,161.222748 328.425171,166.168503 
	C327.758453,167.545227 326.317963,168.838791 327.350037,170.788620 
	C332.266876,167.703735 335.256744,162.649887 339.520935,158.912735 
	C341.132721,157.500168 342.977173,155.873062 344.559967,157.479233 
	C346.275970,159.220581 343.662872,160.457870 342.692505,161.837372 
	C338.860992,167.284348 333.913116,171.699371 329.143951,176.239670 
	C325.893646,179.333969 322.094818,181.559906 317.334381,178.756668 
	C314.864014,177.301941 314.101288,175.531906 314.666931,172.618011 
	C315.976288,165.872986 319.257904,159.961624 322.041016,153.442200 
	C322.294464,152.854507 322.344604,152.664566 322.233917,152.501724 
	C322.132751,152.352951 322.037445,152.278290 321.675964,152.257629 
z"/>
<path fill="#E60094" opacity="1.000000" stroke="none" 
	d="
M253.247574,16.358221 
	C256.319550,11.310956 260.164612,11.726686 264.274170,14.095214 
	C269.051392,16.848583 271.254547,21.748768 270.422821,26.227785 
	C269.347687,32.017815 267.193146,37.392609 265.221832,42.887760 
	C264.150543,45.874088 262.366028,46.805962 259.908020,46.934715 
	C254.012299,47.243542 249.092651,44.940742 245.106339,40.607815 
	C243.257965,38.598728 243.631271,36.211765 244.473419,34.107235 
	C246.882690,28.086473 249.543900,22.164715 253.247574,16.358221 
z"/>
<path fill="#FFFFFF" opacity="1.000000" stroke="none" 
	d="
M311.697144,73.798203 
	C306.676758,76.983322 302.390472,80.822212 296.481018,82.089767 
	C299.490967,73.905457 312.270691,58.792568 324.113342,52.744350 
	C322.272827,61.470154 317.805969,67.894165 311.697144,73.798203 
z"/>
<path fill="#FFFFFF" opacity="1.000000" stroke="none" 
	d="
M353.464478,107.508018 
	C353.178558,108.016624 353.027283,108.991150 352.248779,108.460594 
	C352.076111,108.342918 352.323029,107.609589 352.647003,107.044647 
	C353.044525,107.052940 353.171844,107.176323 353.464478,107.508018 
z"/>
<path fill="#FFFFFF" opacity="1.000000" stroke="none" 
	d="
M418.533966,105.491112 
	C418.815765,104.975288 418.970306,104.005058 419.749908,104.537437 
	C419.923553,104.655998 419.677124,105.389694 419.353760,105.955688 
	C418.955627,105.947449 418.827881,105.823677 418.533966,105.491112 
z"/>
<path fill="#FFFFFF" opacity="1.000000" stroke="none" 
	d="
M202.465927,104.509247 
	C202.183792,105.028236 202.025406,105.997025 201.244232,105.462799 
	C201.071564,105.344711 201.320145,104.610649 201.645569,104.044495 
	C202.044189,104.052605 202.171997,104.176445 202.465927,104.509247 
z"/>
<path fill="#FFFFFF" opacity="1.000000" stroke="none" 
	d="
M215.531845,104.491653 
	C215.816162,103.974968 215.972305,103.005707 216.754883,103.535011 
	C216.925873,103.650681 216.677277,104.386726 216.350403,104.951973 
	C215.951599,104.944267 215.824310,104.821648 215.531845,104.491653 
z"/>
<path fill="#FFFFFF" opacity="1.000000" stroke="none" 
	d="
M245.465881,102.509201 
	C245.183502,103.028053 245.025543,103.997337 244.244064,103.463516 
	C244.071426,103.345566 244.320007,102.610970 244.645508,102.044533 
	C245.044174,102.052574 245.171982,102.176414 245.465881,102.509201 
z"/>
<path fill="#FFFFFF" opacity="1.000000" stroke="none" 
	d="
M185.364578,158.250427 
	C187.390121,153.939255 191.193542,151.864670 194.243973,149.049927 
	C192.634689,153.582413 191.032471,158.118103 185.364578,158.250427 
z"/>
<path fill="#FFFFFF" opacity="1.000000" stroke="none" 
	d="
M233.436127,164.545898 
	C233.154236,165.088516 232.713364,165.413864 232.272476,165.739197 
	C232.302444,165.204498 232.332413,164.669785 232.639740,164.031677 
	C233.037125,164.061722 233.157150,164.195175 233.436127,164.545898 
z"/>
<path fill="#FFFFFF" opacity="1.000000" stroke="none" 
	d="
M289.072876,150.733475 
	C287.739197,154.917267 284.822754,157.060776 281.133820,158.401245 
	C283.397675,155.828598 284.001190,151.840988 288.132446,150.459717 
	C288.624695,150.289520 288.843567,150.342651 289.072876,150.733475 
z"/>
<path fill="#FFFFFF" opacity="1.000000" stroke="none" 
	d="
M313.453552,152.530731 
	C312.766998,153.623856 313.139282,155.349411 311.333191,155.675034 
	C310.357025,154.260574 312.486328,153.476990 312.603516,152.070465 
	C313.040222,152.058823 313.163391,152.189285 313.453552,152.530731 
z"/>
<path fill="#FFFFFF" opacity="1.000000" stroke="none" 
	d="
M321.563751,152.454254 
	C321.845673,151.911575 322.286591,151.586197 322.727509,151.260818 
	C322.697540,151.795563 322.667542,152.330322 322.360107,152.968567 
	C321.962708,152.938553 321.842712,152.805038 321.563751,152.454254 
z"/>
<path fill="#FFFFFF" opacity="1.000000" stroke="none" 
	d="
M288.564484,150.453766 
	C288.846466,149.911255 289.287109,149.586121 289.727753,149.261002 
	C289.697784,149.795532 289.667847,150.330078 289.360596,150.967880 
	C288.963257,150.937820 288.843201,150.804489 288.564484,150.453766 
z"/>
</svg>